<svg width="21" height="20" viewBox="0 0 21 20" fill="none" xmlns="http://www.w3.org/2000/svg">
<g id="clock-rotate-left">
<path id="Primary" d="M4.84375 4.34375L3.78125 3.28125C3.30937 2.80937 2.5 3.14375 2.5 3.80938V7.25C2.5 7.66563 2.83437 8 3.25 8H6.69063C7.35938 8 7.69375 7.19063 7.22188 6.71875L6.25938 5.75625C7.34375 4.67188 8.84375 4 10.5 4C13.8125 4 16.5 6.6875 16.5 10C16.5 13.3125 13.8125 16 10.5 16C9.225 16 8.04375 15.6031 7.07188 14.925C6.61875 14.6094 5.99687 14.7188 5.67812 15.1719C5.35938 15.625 5.47187 16.2469 5.925 16.5656C7.225 17.4688 8.80312 18 10.5 18C14.9187 18 18.5 14.4187 18.5 10C18.5 5.58125 14.9187 2 10.5 2C8.29063 2 6.29063 2.89688 4.84375 4.34375ZM10.5 6C10.0844 6 9.75 6.33437 9.75 6.75V10C9.75 10.2 9.82812 10.3906 9.96875 10.5312L12.2188 12.7812C12.5125 13.075 12.9875 13.075 13.2781 12.7812C13.5687 12.4875 13.5719 12.0125 13.2781 11.7219L11.2469 9.69063V6.75C11.2469 6.33437 10.9125 6 10.4969 6H10.5Z" fill="#707070"/>
</g>
</svg>
