<svg width="24" height="20" viewBox="0 0 24 20" fill="none" xmlns="http://www.w3.org/2000/svg">
<g id="house">
<path id="Primary" d="M20.7438 9.98438C20.7438 10.5469 20.275 10.9875 19.7438 10.9875H18.7438L18.7657 15.9937C18.7657 16.0781 18.7594 16.1625 18.75 16.2469V16.7531C18.75 17.4438 18.1907 18.0031 17.5 18.0031H17C16.9657 18.0031 16.9313 18.0031 16.8969 18C16.8532 18.0031 16.8094 18.0031 16.7657 18.0031L15.75 18H15C14.3094 18 13.75 17.4406 13.75 16.75V16V14C13.75 13.4469 13.3032 13 12.75 13H10.75C10.1969 13 9.75005 13.4469 9.75005 14V16V16.75C9.75005 17.4406 9.19067 18 8.50005 18H7.75005H6.75317C6.7063 18 6.65942 17.9969 6.61255 17.9937C6.57505 17.9969 6.53755 18 6.50005 18H6.00005C5.30942 18 4.75005 17.4406 4.75005 16.75V13.25C4.75005 13.2219 4.75005 13.1906 4.75317 13.1625V10.9844H3.75317C3.19067 10.9844 2.75317 10.5469 2.75317 9.98125C2.75317 9.7 2.84692 9.45 3.06567 9.23125L11.075 2.25C11.2938 2.03125 11.5438 2 11.7625 2C11.9813 2 12.2313 2.0625 12.4188 2.21875L20.4 9.23438C20.65 9.45312 20.775 9.70312 20.7438 9.98438Z" fill="#048DC1"/>
</g>
</svg>
