<svg width="20" height="18" viewBox="0 0 20 18" fill="none" xmlns="http://www.w3.org/2000/svg">
<path id="Primary" d="M6.56646 14.0303C5.98087 13.8194 5.32891 13.9092 4.8253 14.2801C4.50517 14.5143 3.95471 14.8579 3.28714 15.1663C3.50576 14.5924 3.67363 13.9444 3.72828 13.2378C3.76732 12.7341 3.59945 12.2344 3.26762 11.8518C2.35799 10.8251 1.8739 9.62268 1.8739 8.37342C1.8739 5.26977 5.1259 2.12708 9.99414 2.12708C14.8624 2.12708 18.1144 5.26977 18.1144 8.37342C18.1144 11.4771 14.8624 14.6198 9.99414 14.6198C8.76049 14.6198 7.60102 14.405 6.56646 14.0303ZM1.02674 15.5489C0.964279 15.6543 0.897911 15.7597 0.82764 15.8651L0.815928 15.8846C0.753465 15.9744 0.691001 16.0642 0.628538 16.154C0.491899 16.3375 0.343549 16.5171 0.18739 16.681C0.00780794 16.8606 -0.0429436 17.1261 0.0546555 17.3603C0.152255 17.5946 0.378684 17.7468 0.632442 17.7468C0.831544 17.7468 1.03065 17.7351 1.22975 17.7156L1.25708 17.7117C1.42885 17.6922 1.60062 17.6688 1.7724 17.6375C1.80363 17.6336 1.83486 17.6258 1.86609 17.618C2.561 17.4814 3.22858 17.2471 3.82198 16.9895C4.71599 16.5991 5.47726 16.1345 5.94183 15.7948C7.18329 16.2438 8.55749 16.4937 10.0059 16.4937C15.5261 16.4937 20 12.8591 20 8.37342C20 3.88776 15.5143 0.253174 9.99414 0.253174C4.47394 0.253174 0 3.88776 0 8.37342C0 10.1341 0.691001 11.7621 1.86219 13.0933C1.78801 14.0498 1.41714 14.9008 1.02674 15.5489ZM5.62171 9.62268C5.95303 9.62268 6.27079 9.49107 6.50507 9.25678C6.73936 9.0225 6.87097 8.70474 6.87097 8.37342C6.87097 8.04209 6.73936 7.72433 6.50507 7.49005C6.27079 7.25577 5.95303 7.12415 5.62171 7.12415C5.29038 7.12415 4.97262 7.25577 4.73834 7.49005C4.50406 7.72433 4.37244 8.04209 4.37244 8.37342C4.37244 8.70474 4.50406 9.0225 4.73834 9.25678C4.97262 9.49107 5.29038 9.62268 5.62171 9.62268ZM11.2434 8.37342C11.2434 8.04209 11.1118 7.72433 10.8775 7.49005C10.6432 7.25577 10.3255 7.12415 9.99414 7.12415C9.66282 7.12415 9.34506 7.25577 9.11078 7.49005C8.8765 7.72433 8.74488 8.04209 8.74488 8.37342C8.74488 8.70474 8.8765 9.0225 9.11078 9.25678C9.34506 9.49107 9.66282 9.62268 9.99414 9.62268C10.3255 9.62268 10.6432 9.49107 10.8775 9.25678C11.1118 9.0225 11.2434 8.70474 11.2434 8.37342ZM14.3666 9.62268C14.6979 9.62268 15.0157 9.49107 15.2499 9.25678C15.4842 9.0225 15.6159 8.70474 15.6159 8.37342C15.6159 8.04209 15.4842 7.72433 15.2499 7.49005C15.0157 7.25577 14.6979 7.12415 14.3666 7.12415C14.0353 7.12415 13.7175 7.25577 13.4832 7.49005C13.2489 7.72433 13.1173 8.04209 13.1173 8.37342C13.1173 8.70474 13.2489 9.0225 13.4832 9.25678C13.7175 9.49107 14.0353 9.62268 14.3666 9.62268Z" fill="#707070"/>
</svg>
