<svg width="15" height="15" viewBox="0 0 15 15" fill="none" xmlns="http://www.w3.org/2000/svg">
<path id="Vector" d="M12.5 13.3333H2.5C2.04167 13.3333 1.66667 12.9583 1.66667 12.5V2.5C1.66667 2.04167 2.04167 1.66667 2.5 1.66667H6.66667C7.125 1.66667 7.5 1.29167 7.5 0.833333C7.5 0.375 7.125 0 6.66667 0H1.66667C0.741667 0 0 0.75 0 1.66667V13.3333C0 14.25 0.75 15 1.66667 15H13.3333C14.25 15 15 14.25 15 13.3333V8.33333C15 7.875 14.625 7.5 14.1667 7.5C13.7083 7.5 13.3333 7.875 13.3333 8.33333V12.5C13.3333 12.9583 12.9583 13.3333 12.5 13.3333ZM9.16667 0.833333C9.16667 1.29167 9.54167 1.66667 10 1.66667H12.1583L4.55 9.275C4.225 9.6 4.225 10.125 4.55 10.45C4.875 10.775 5.4 10.775 5.725 10.45L13.3333 2.84167V5C13.3333 5.45833 13.7083 5.83333 14.1667 5.83333C14.625 5.83333 15 5.45833 15 5V0.833333C15 0.375 14.625 0 14.1667 0H10C9.54167 0 9.16667 0.375 9.16667 0.833333Z" fill="#0A4777"/>
</svg>
